<svg width="23" height="27" viewBox="0 0 23 27" fill="none" xmlns="http://www.w3.org/2000/svg">
<path d="M18.6264 14.2175C18.6143 12.1528 19.5497 10.5968 21.4388 9.44941C20.3822 7.93574 18.7838 7.10322 16.6768 6.94277C14.6817 6.78535 12.499 8.10527 11.6998 8.10527C10.8552 8.10527 8.92373 6.99727 7.404 6.99727C4.26768 7.0457 0.93457 9.49785 0.93457 14.4869C0.93457 15.9612 1.204 17.484 1.74287 19.0521C2.46338 21.1168 5.06084 26.1755 7.77031 26.0937C9.18711 26.0604 10.1892 25.0887 12.0328 25.0887C13.822 25.0887 14.7483 26.0937 16.3286 26.0937C19.0623 26.0544 21.4115 21.4559 22.0957 19.3852C18.4296 17.6565 18.6264 14.3234 18.6264 14.2175ZM15.4446 4.98408C16.9795 3.16162 16.8402 1.50264 16.7948 0.90625C15.4386 0.984961 13.8704 1.82959 12.9773 2.86797C11.9935 3.98203 11.4152 5.35947 11.5394 6.9125C13.0046 7.02451 14.3427 6.2707 15.4446 4.98408Z" fill="white"/>
</svg>
