<svg width="33" height="29" viewBox="0 0 33 29" fill="none" xmlns="http://www.w3.org/2000/svg">
<path d="M30.7917 12.4583H6.57758L13.9888 3.55664C14.3354 3.1397 14.5021 2.60217 14.4523 2.0623C14.4026 1.52242 14.1404 1.02444 13.7234 0.67789C13.3065 0.33134 12.7689 0.164614 12.2291 0.214389C11.6892 0.264164 11.1912 0.526364 10.8447 0.943306L0.636331 13.1933C0.567651 13.2907 0.506235 13.3931 0.452581 13.4996C0.452581 13.6016 0.452582 13.6629 0.309665 13.765C0.217123 13.9991 0.16867 14.2483 0.166748 14.5C0.16867 14.7517 0.217123 15.0009 0.309665 15.235C0.309665 15.3371 0.309664 15.3983 0.452581 15.5004C0.506235 15.6068 0.567651 15.7092 0.636331 15.8066L10.8447 28.0566C11.0366 28.2871 11.277 28.4725 11.5487 28.5995C11.8204 28.7265 12.1168 28.7921 12.4167 28.7916C12.8938 28.7926 13.3561 28.6264 13.7234 28.3221C13.9302 28.1507 14.101 27.9402 14.2263 27.7026C14.3516 27.4651 14.4287 27.2052 14.4534 26.9377C14.478 26.6703 14.4497 26.4007 14.37 26.1443C14.2903 25.8878 14.1607 25.6496 13.9888 25.4433L6.57758 16.5416H30.7917C31.3332 16.5416 31.8525 16.3265 32.2354 15.9436C32.6183 15.5608 32.8334 15.0415 32.8334 14.5C32.8334 13.9585 32.6183 13.4392 32.2354 13.0563C31.8525 12.6734 31.3332 12.4583 30.7917 12.4583Z" fill="black"/>
</svg>
