<svg width="18" height="12" viewBox="0 0 18 12" fill="none" xmlns="http://www.w3.org/2000/svg">
<path d="M3.15234 4.16211C4.04687 1.80273 6.32617 0.125 8.99609 0.125C11.666 0.125 13.9453 1.80078 14.8398 4.16016C16.5137 4.59961 17.75 6.125 17.75 7.9375C17.75 10.0957 16.002 11.8438 13.8457 11.8438H13.0625C12.9766 11.8438 12.9062 11.7734 12.9062 11.6875V10.5156C12.9062 10.4297 12.9766 10.3594 13.0625 10.3594H13.8457C14.5039 10.3594 15.123 10.0977 15.584 9.62305C16.043 9.15039 16.2871 8.51367 16.2656 7.85352C16.248 7.33789 16.0723 6.85352 15.7539 6.44531C15.4277 6.0293 14.9707 5.72656 14.4629 5.5918L13.7227 5.39844L13.4512 4.68359C13.2832 4.23828 13.0488 3.82227 12.7539 3.44531C12.4628 3.07169 12.1179 2.74326 11.7305 2.4707C10.9277 1.90625 9.98242 1.60742 8.99609 1.60742C8.00977 1.60742 7.06445 1.90625 6.26172 2.4707C5.87305 2.74414 5.5293 3.07227 5.23828 3.44531C4.94336 3.82227 4.70898 4.24023 4.54102 4.68359L4.27148 5.39648L3.5332 5.5918C2.47461 5.87695 1.73438 6.83984 1.73438 7.9375C1.73438 8.58398 1.98633 9.19336 2.44336 9.65039C2.66749 9.87584 2.93412 10.0546 3.22781 10.1763C3.52149 10.298 3.8364 10.3602 4.1543 10.3594H4.9375C5.02344 10.3594 5.09375 10.4297 5.09375 10.5156V11.6875C5.09375 11.7734 5.02344 11.8438 4.9375 11.8438H4.1543C1.99805 11.8438 0.25 10.0957 0.25 7.9375C0.25 6.12695 1.48242 4.60352 3.15234 4.16211Z" fill="#858FA2"/>
</svg>
