<svg width="18" height="19" viewBox="0 0 18 19" fill="none" xmlns="http://www.w3.org/2000/svg">
<path d="M16.955 0H1.79101C1.53965 0 1.29859 0.105357 1.12085 0.292893C0.943113 0.48043 0.843262 0.734784 0.843262 1V3.59C0.843262 4.113 1.04513 4.627 1.3958 4.997L6.52975 10.414V18C6.52993 18.1704 6.57133 18.3379 6.65002 18.4867C6.7287 18.6354 6.84208 18.7605 6.9794 18.8502C7.11673 18.9398 7.27346 18.9909 7.43476 18.9988C7.59606 19.0066 7.75658 18.9709 7.90114 18.895L11.6921 16.895C12.0134 16.725 12.2162 16.379 12.2162 16V10.414L17.3502 4.997C17.7009 4.627 17.9027 4.113 17.9027 3.59V1C17.9027 0.734784 17.8029 0.48043 17.6251 0.292893C17.4474 0.105357 17.2063 0 16.955 0ZM10.5984 9.293C10.5103 9.38571 10.4403 9.4959 10.3927 9.61724C10.345 9.73857 10.3206 9.86866 10.3207 10V15.382L8.42524 16.382V10C8.42543 9.86866 8.40098 9.73857 8.35333 9.61724C8.30567 9.4959 8.23574 9.38571 8.14755 9.293L2.73876 3.59V2H16.0082L16.0101 3.583L10.5984 9.293Z" fill="#858FA2"/>
</svg>
