<svg width="24" height="24" viewBox="0 0 24 24" fill="none" xmlns="http://www.w3.org/2000/svg">
<path fill-rule="evenodd" clip-rule="evenodd" d="M7.37128 0.840069C8.56852 0.784953 8.95024 0.772705 12 0.772705C15.0497 0.772705 15.4314 0.785974 16.6277 0.840069C17.8239 0.894164 18.6404 1.08503 19.3549 1.36163C20.103 1.64435 20.7817 2.0863 21.3431 2.65787C21.9147 3.21821 22.3556 3.89593 22.6373 4.64509C22.9149 5.35956 23.1048 6.17609 23.1599 7.37026C23.215 8.56954 23.2273 8.95126 23.2273 12C23.2273 15.0497 23.214 15.4314 23.1599 16.6287C23.1058 17.8229 22.9149 18.6394 22.6373 19.3538C22.3556 20.1031 21.9139 20.782 21.3431 21.3431C20.7817 21.9147 20.103 22.3556 19.3549 22.6373C18.6404 22.9149 17.8239 23.1048 16.6297 23.1599C15.4314 23.215 15.0497 23.2273 12 23.2273C8.95024 23.2273 8.56852 23.214 7.37128 23.1599C6.17711 23.1058 5.36058 22.9149 4.64611 22.6373C3.89687 22.3556 3.21803 21.9139 2.65685 21.3431C2.08566 20.7824 1.64365 20.1039 1.36163 19.3549C1.08503 18.6404 0.895184 17.8239 0.840069 16.6297C0.784953 15.4304 0.772705 15.0487 0.772705 12C0.772705 8.95024 0.785974 8.56852 0.840069 7.3723C0.894164 6.17609 1.08503 5.35956 1.36163 4.64509C1.64407 3.89601 2.08642 3.21751 2.65787 2.65685C3.21825 2.08579 3.89641 1.64378 4.64509 1.36163C5.35956 1.08503 6.17609 0.895184 7.37026 0.840069H7.37128ZM16.5368 2.86098C15.3529 2.80688 14.9977 2.79566 12 2.79566C9.0023 2.79566 8.64711 2.80688 7.46314 2.86098C6.36797 2.91099 5.77395 3.09369 5.37793 3.24781C4.85433 3.45194 4.47975 3.69384 4.08679 4.08679C3.7143 4.44918 3.42763 4.89034 3.24781 5.37793C3.09369 5.77395 2.91099 6.36797 2.86098 7.46314C2.80688 8.64711 2.79566 9.0023 2.79566 12C2.79566 14.9977 2.80688 15.3529 2.86098 16.5368C2.91099 17.632 3.09369 18.226 3.24781 18.622C3.42744 19.1089 3.71425 19.5508 4.08679 19.9132C4.44913 20.2857 4.89107 20.5725 5.37793 20.7521C5.77395 20.9063 6.36797 21.089 7.46314 21.139C8.64711 21.1931 9.00128 21.2043 12 21.2043C14.9987 21.2043 15.3529 21.1931 16.5368 21.139C17.632 21.089 18.226 20.9063 18.622 20.7521C19.1456 20.548 19.5202 20.3061 19.9132 19.9132C20.2857 19.5508 20.5725 19.1089 20.7521 18.622C20.9063 18.226 21.089 17.632 21.139 16.5368C21.1931 15.3529 21.2043 14.9977 21.2043 12C21.2043 9.0023 21.1931 8.64711 21.139 7.46314C21.089 6.36797 20.9063 5.77395 20.7521 5.37793C20.548 4.85433 20.3061 4.47975 19.9132 4.08679C19.5508 3.71432 19.1096 3.42766 18.622 3.24781C18.226 3.09369 17.632 2.91099 16.5368 2.86098ZM10.5659 15.461C11.3668 15.7944 12.2586 15.8394 13.089 15.5883C13.9193 15.3373 14.6367 14.8057 15.1187 14.0844C15.6007 13.3631 15.8173 12.4969 15.7316 11.6337C15.6458 10.7704 15.263 9.96373 14.6486 9.35136C14.2569 8.95992 13.7833 8.66018 13.2619 8.47374C12.7404 8.2873 12.1841 8.2188 11.633 8.27315C11.082 8.32751 10.5498 8.50337 10.0748 8.78809C9.59985 9.07281 9.19392 9.45929 8.88625 9.91972C8.57858 10.3801 8.37682 10.9031 8.29551 11.4508C8.21419 11.9986 8.25533 12.5576 8.41597 13.0875C8.57661 13.6175 8.85275 14.1052 9.22452 14.5156C9.59628 14.926 10.0544 15.2489 10.5659 15.461ZM7.91937 7.91937C8.45525 7.3835 9.09142 6.95843 9.79157 6.66841C10.4917 6.3784 11.2421 6.22913 12 6.22913C12.7578 6.22913 13.5082 6.3784 14.2084 6.66841C14.9085 6.95843 15.5447 7.3835 16.0806 7.91937C16.6165 8.45525 17.0415 9.09142 17.3315 9.79157C17.6216 10.4917 17.7708 11.2421 17.7708 12C17.7708 12.7578 17.6216 13.5082 17.3315 14.2084C17.0415 14.9085 16.6165 15.5447 16.0806 16.0806C14.9983 17.1628 13.5305 17.7708 12 17.7708C10.4695 17.7708 9.00162 17.1628 7.91937 16.0806C6.83713 14.9983 6.22913 13.5305 6.22913 12C6.22913 10.4695 6.83713 9.00162 7.91937 7.91937ZM19.0507 7.08856C19.1835 6.96329 19.2898 6.81265 19.3633 6.64556C19.4369 6.47847 19.4761 6.29833 19.4788 6.1158C19.4815 5.93326 19.4475 5.75205 19.3788 5.58289C19.3102 5.41373 19.2083 5.26005 19.0792 5.13097C18.9502 5.00188 18.7965 4.90001 18.6273 4.83138C18.4582 4.76275 18.277 4.72876 18.0944 4.73142C17.9119 4.73409 17.7317 4.77334 17.5647 4.84687C17.3976 4.92041 17.2469 5.02671 17.1217 5.15951C16.878 5.41776 16.7447 5.7608 16.7498 6.1158C16.755 6.47079 16.8983 6.80979 17.1494 7.06084C17.4004 7.31188 17.7394 7.45521 18.0944 7.46038C18.4494 7.46556 18.7924 7.33218 19.0507 7.08856Z" fill="white"/>
</svg>
