<svg width="29" height="30" viewBox="0 0 29 30" fill="none" xmlns="http://www.w3.org/2000/svg">
<path d="M18.9589 23.2084C18.9589 24.435 18.4716 25.6114 17.6042 26.4787C16.7369 27.3461 15.5605 27.8334 14.3339 27.8334C13.1073 27.8334 11.9309 27.3461 11.0635 26.4787C10.1962 25.6114 9.70888 24.435 9.70888 23.2084M15.4454 1.62965L13.1853 1.62503C8.03 1.61269 3.55455 5.8014 3.51909 10.875V16.7179C3.51909 17.9359 3.36492 19.1245 2.70046 20.1374L2.258 20.8126C1.5843 21.8363 2.30888 23.2084 3.51909 23.2084H25.1487C26.3589 23.2084 27.0819 21.8363 26.4098 20.8126L25.9673 20.1374C25.3044 19.1245 25.1487 17.9343 25.1487 16.7164V10.8766C25.087 5.8014 20.6008 1.64199 15.4454 1.62965V1.62965Z" stroke="#858FA2" stroke-width="3" stroke-linecap="round" stroke-linejoin="round"/>
</svg>
