<svg width="24" height="19" viewBox="0 0 24 19" fill="none" xmlns="http://www.w3.org/2000/svg">
<path d="M23.2273 2.51195C22.602 3.43675 21.8348 4.22509 20.9258 4.87699C20.9348 5.05182 20.9393 5.24943 20.9393 5.46981C20.9393 6.69429 20.7598 7.92025 20.4007 9.1477C20.0416 10.3752 19.4931 11.55 18.7551 12.6724C18.0172 13.7947 17.1382 14.789 16.1181 15.6552C15.098 16.5215 13.8718 17.2122 12.4395 17.7273C11.0072 18.2424 9.47211 18.5 7.83432 18.5C5.27827 18.5 2.9244 17.8139 0.772705 16.4417C1.1546 16.4839 1.52088 16.5051 1.87153 16.5051C4.0069 16.5051 5.91413 15.8511 7.59322 14.5431C6.59759 14.525 5.70592 14.2202 4.91823 13.6289C4.13054 13.0375 3.58846 12.2819 3.29201 11.3621C3.58503 11.4176 3.87424 11.4453 4.15962 11.4453C4.57042 11.4453 4.97463 11.392 5.37226 11.2855C4.30974 11.0739 3.42829 10.5477 2.7279 9.70689C2.02754 8.86611 1.67736 7.89567 1.67736 6.79559V6.7389C2.32954 7.09795 3.0252 7.28894 3.76432 7.31186C3.13489 6.89463 2.63585 6.35055 2.26719 5.67961C1.89851 5.00867 1.71417 4.2826 1.71417 3.5014C1.71417 2.67749 1.92181 1.91027 2.33709 1.19975C3.49256 2.60963 4.89266 3.73646 6.53739 4.58022C8.18214 5.424 9.94664 5.8926 11.8309 5.98604C11.7505 5.65302 11.7103 5.3055 11.7101 4.94347C11.7101 3.67942 12.16 2.6001 13.0598 1.70552C13.9596 0.810938 15.0451 0.363647 16.3164 0.363647C17.6474 0.363647 18.7685 0.845536 19.6797 1.80931C20.7208 1.60426 21.6957 1.23338 22.6042 0.696667C22.2542 1.79198 21.5797 2.63694 20.5808 3.23155C21.4989 3.12307 22.381 2.8832 23.2272 2.51195H23.2273Z" fill="white"/>
</svg>
